<svg width="40" height="40" viewBox="0 0 40 40" fill="none" xmlns="http://www.w3.org/2000/svg">
<path opacity="0.928" fill-rule="evenodd" clip-rule="evenodd" d="M19.6757 1.59961C19.8909 1.59961 20.1061 1.59961 20.3212 1.59961C20.6207 1.91378 20.6804 2.27239 20.5005 2.67545C20.1148 2.96853 19.9714 3.35105 20.0702 3.823C20.3571 4.15771 20.644 4.49241 20.9309 4.82712C21.4737 5.99114 21.2705 7.00721 20.3212 7.87532C19.5655 8.05211 19.2427 7.75326 19.353 6.97879C19.7621 6.63926 19.9294 6.20892 19.855 5.68779C19.6185 5.37939 19.3555 5.09251 19.0661 4.82712C18.4146 3.58498 18.6177 2.50914 19.6757 1.59961Z" fill="#FF818E"/>
<path opacity="0.926" fill-rule="evenodd" clip-rule="evenodd" d="M12.9325 5.33008C13.5334 5.40763 13.7605 5.74234 13.6139 6.33419C13.3089 6.62143 13.1057 6.96808 13.0042 7.37417C13.0714 7.56828 13.167 7.74759 13.2911 7.91209C14.6047 9.13452 14.6287 10.3897 13.3628 11.6775C12.6071 11.8543 12.2844 11.5554 12.3946 10.781C12.5899 10.5617 12.7572 10.3227 12.8967 10.0638C12.9621 9.78031 12.9142 9.5173 12.7532 9.27481C11.4072 8.03026 11.3713 6.75121 12.6456 5.43766C12.7574 5.4226 12.853 5.38674 12.9325 5.33008Z" fill="#FF818E"/>
<path opacity="0.927" fill-rule="evenodd" clip-rule="evenodd" d="M26.9192 5.33008C27.5614 5.48073 27.7407 5.86325 27.4571 6.47764C27.087 6.77511 26.9436 7.15762 27.0268 7.6252C27.3137 7.9599 27.6005 8.2946 27.8874 8.62931C28.453 9.79803 28.2498 10.8141 27.2778 11.6775C26.7098 11.8871 26.3751 11.6958 26.2737 11.1037C26.2767 10.9627 26.3126 10.8311 26.3813 10.7093C26.7493 10.3801 26.8927 9.97367 26.8116 9.48998C26.5247 9.15525 26.2378 8.82059 25.9509 8.48586C25.4149 7.36629 25.5942 6.37413 26.4888 5.50938C26.6403 5.4488 26.7837 5.38903 26.9192 5.33008Z" fill="#FF818E"/>
<path opacity="0.982" fill-rule="evenodd" clip-rule="evenodd" d="M18.5265 14.2237C19.1261 14.2 19.7237 14.2239 20.3195 14.2954C17.8068 17.2314 16.6951 20.6262 16.9844 24.48C17.6422 25.6159 18.5627 25.8908 19.7457 25.3048C20.1308 25.0249 20.3818 24.6543 20.4988 24.1931C20.5077 20.1341 22.1573 16.9545 25.4477 14.6541C26.7819 14.9074 28.0849 15.278 29.3566 15.7658C27.6176 18.3056 26.8406 21.1147 27.0256 24.1931C27.5803 25.5522 28.5246 25.9228 29.8586 25.3048C30.366 24.9478 30.6409 24.4576 30.6834 23.8345C30.6366 21.5129 31.2941 19.4211 32.6558 17.5588C32.7275 17.511 32.7992 17.511 32.8709 17.5588C35.0738 19.0365 36.5919 21.0328 37.4253 23.5476C37.8845 25.4631 37.7889 27.3518 37.1384 29.2137C36.3188 30.9456 34.9441 31.866 33.0144 31.975C24.3121 32.0229 15.6097 32.0229 6.90743 31.975C4.4767 31.7436 2.98248 30.4407 2.42478 28.0661C1.77406 24.931 2.49129 22.1577 4.57645 19.7463C5.9723 18.1998 7.62191 17.0045 9.5253 16.1602C9.173 16.8648 8.81439 17.582 8.44947 18.3119C7.64813 20.1669 7.28951 22.1034 7.37363 24.1214C7.81294 25.4109 8.68556 25.8532 9.9915 25.4483C10.5733 25.1575 10.9199 24.6913 11.0315 24.0497C11.0216 20.9029 12.1572 18.2612 14.4383 16.1244C15.139 15.5192 15.8801 14.9693 16.6617 14.4747C17.2852 14.3451 17.9069 14.2614 18.5265 14.2237ZM7.7681 29.5006C15.8967 29.4886 24.0252 29.5006 32.1537 29.5365C32.5552 29.7297 32.6628 30.0286 32.4765 30.433C32.3474 30.5633 32.192 30.647 32.0103 30.684C23.9774 30.7318 15.9445 30.7318 7.91155 30.684C7.36611 30.5376 7.22266 30.2149 7.48121 29.7158C7.58172 29.6425 7.67735 29.5708 7.7681 29.5006Z" fill="#FF818E"/>
<path opacity="0.928" fill-rule="evenodd" clip-rule="evenodd" d="M21.8989 14.2949C22.5074 14.2997 23.1051 14.3714 23.6919 14.5101C20.8091 17.0491 19.3388 20.2528 19.281 24.1209C19.0374 24.3865 18.7386 24.4701 18.3845 24.3719C18.2248 24.2839 18.1172 24.1524 18.0617 23.9774C17.9896 20.2027 19.2687 16.9752 21.8989 14.2949Z" fill="#FF818E"/>
<path opacity="0.927" fill-rule="evenodd" clip-rule="evenodd" d="M14.081 14.7246C14.1546 14.7531 14.1665 14.8009 14.1169 14.8681C11.2715 17.3083 9.81306 20.4163 9.74184 24.192C9.44513 24.4307 9.12238 24.4666 8.77359 24.2996C8.68742 24.2348 8.62765 24.1512 8.59428 24.0485C8.46797 20.697 9.53184 17.7922 11.7859 15.3342C12.5539 15.1065 13.3189 14.9033 14.081 14.7246Z" fill="#FF818E"/>
<path opacity="0.928" fill-rule="evenodd" clip-rule="evenodd" d="M30.4334 16.2314C30.8725 16.3912 31.2789 16.6063 31.6526 16.8769C30.1589 19.0015 29.4297 21.3683 29.4651 23.9775C29.2893 24.3783 28.9905 24.5098 28.5686 24.3719C28.4405 24.3156 28.3329 24.232 28.2458 24.1209C28.0699 22.0452 28.4285 20.0608 29.3217 18.168C29.6577 17.4951 30.0282 16.8496 30.4334 16.2314Z" fill="#FF818E"/>
<path opacity="0.928" fill-rule="evenodd" clip-rule="evenodd" d="M2.60469 33.2301C14.176 33.2181 25.7471 33.2301 37.3183 33.2659C37.8588 33.637 37.8827 34.0434 37.3901 34.4852C37.2945 34.5091 37.1988 34.5331 37.1032 34.5569C25.6754 34.6048 14.2476 34.6048 2.81986 34.5569C2.26046 34.4096 2.08116 34.0629 2.28194 33.517C2.38212 33.4044 2.48971 33.3087 2.60469 33.2301Z" fill="#FF818E"/>
<path opacity="0.978" fill-rule="evenodd" clip-rule="evenodd" d="M35.0234 38.3222C24.9823 38.3222 14.9411 38.3222 4.9 38.3222C3.75643 37.8536 3.27828 36.9929 3.46555 35.7402C14.463 35.7402 25.4605 35.7402 36.4579 35.7402C36.6451 36.9929 36.167 37.8536 35.0234 38.3222Z" fill="#FF818E"/>
</svg>
