<svg width="41" height="40" viewBox="0 0 41 40" fill="none" xmlns="http://www.w3.org/2000/svg">
<path opacity="0.932" fill-rule="evenodd" clip-rule="evenodd" d="M8.84521 2.40039C10.1301 2.67746 11.4037 3.00811 12.666 3.39233C12.7972 3.44997 12.9074 3.53569 12.9966 3.6495C13.1048 4.91616 13.1415 6.18976 13.1069 7.47029C12.666 7.47029 12.2251 7.47029 11.7843 7.47029C11.7965 6.58823 11.7843 5.70651 11.7475 4.82512C11.6314 4.55205 11.4233 4.39284 11.123 4.34752C10.2827 4.12525 9.45 3.88033 8.62478 3.61276C8.53564 3.18124 8.60912 2.77712 8.84521 2.40039Z" fill="#FF818E"/>
<path opacity="0.942" fill-rule="evenodd" clip-rule="evenodd" d="M5.46571 8.6462C10.1193 8.63393 14.7729 8.6462 19.4263 8.68294C19.5575 8.74062 19.6677 8.8263 19.7569 8.94011C19.9162 9.25849 20.0753 9.57693 20.2345 9.89531C15.0422 9.99325 9.84985 9.99325 4.65747 9.89531C4.83818 9.40882 5.1076 8.99243 5.46571 8.6462Z" fill="#FF818E"/>
<path opacity="0.945" fill-rule="evenodd" clip-rule="evenodd" d="M3.48144 11.1443C9.48206 11.132 15.4827 11.1443 21.4832 11.181C21.8123 11.4067 21.9593 11.7251 21.9241 12.1362C21.9834 12.6265 21.7874 12.9449 21.3363 13.0914C15.4091 13.1404 9.48206 13.1404 3.55491 13.0914C3.08542 12.9438 2.91398 12.6253 3.04058 12.1362C2.93501 11.6719 3.08197 11.3412 3.48144 11.1443Z" fill="#FF818E"/>
<path opacity="0.99" fill-rule="evenodd" clip-rule="evenodd" d="M4.29028 14.3037C9.72756 14.3037 15.1648 14.3037 20.6021 14.3037C20.5511 15.0404 20.4777 15.7752 20.3817 16.508C17.1015 17.5468 15.1299 19.7511 14.4668 23.1209C14.2134 24.0253 14.3481 24.8581 14.8709 25.6191C14.1656 26.5496 14.2146 27.4436 15.0179 28.301C14.1362 29.4277 14.1362 30.5543 15.0179 31.681C14.4027 32.4153 14.1945 33.2603 14.3933 34.2159C14.5455 35.5122 15.0966 36.6021 16.0466 37.4856C12.985 37.5346 9.92353 37.5346 6.86197 37.4856C6.50683 37.3264 6.24967 37.0692 6.09046 36.7141C5.46607 29.2461 4.86601 21.7759 4.29028 14.3037Z" fill="#FF818E"/>
<path opacity="0.977" fill-rule="evenodd" clip-rule="evenodd" d="M22.1452 17.3895C25.2803 17.3772 28.4153 17.3895 31.5502 17.4262C34.9713 17.7612 37.1389 19.5858 38.0529 22.9002C38.1589 23.4845 38.1833 24.0723 38.1264 24.6637C38.0449 24.8338 37.9102 24.944 37.7223 24.9943C30.4194 25.0673 23.1208 25.0428 15.8262 24.9208C15.6139 24.7251 15.5158 24.4802 15.5323 24.1861C15.9689 20.186 18.1732 17.9205 22.1452 17.3895ZM23.6882 18.712C24.1637 18.6272 24.5678 18.7496 24.9006 19.0794C25.0019 19.5509 24.8182 19.8325 24.3495 19.9244C23.9025 20.0241 23.5229 19.9139 23.2106 19.5938C23.1034 19.151 23.2626 18.8571 23.6882 18.712ZM27.3621 20.6224C27.7388 20.5939 28.1062 20.6307 28.4642 20.7327C28.7894 21.1324 28.7404 21.4754 28.3172 21.7613C27.9169 21.8272 27.525 21.8027 27.1416 21.6878C26.8019 21.239 26.8753 20.8839 27.3621 20.6224ZM21.6309 21.2837C22.0563 21.254 22.4726 21.2908 22.88 21.3939C23.1931 21.8471 23.0951 22.19 22.5861 22.4226C22.2365 22.4821 21.8936 22.4576 21.5574 22.3491C21.1535 21.9585 21.178 21.6034 21.6309 21.2837Z" fill="#FF818E"/>
<path opacity="0.951" fill-rule="evenodd" clip-rule="evenodd" d="M15.9731 26.2067C23.2473 26.1944 30.5215 26.2067 37.7956 26.2434C38.1752 26.5168 38.2609 26.8719 38.0528 27.3088C37.9486 27.3793 37.8383 27.4406 37.7222 27.4925C36.5671 27.4971 35.416 27.5461 34.2688 27.6395C33.4818 28.1065 32.7471 28.6453 32.0645 29.2559C31.844 29.4029 31.6236 29.4029 31.4032 29.2559C30.8644 28.8151 30.3255 28.3742 29.7867 27.9334C29.5089 27.7699 29.215 27.6475 28.905 27.566C24.6188 27.5415 20.3326 27.517 16.0465 27.4925C15.3879 27.0992 15.3633 26.6706 15.9731 26.2067Z" fill="#FF818E"/>
<path opacity="0.965" fill-rule="evenodd" clip-rule="evenodd" d="M16.4873 28.7049C20.5776 28.6926 24.6677 28.7049 28.7579 28.7416C28.8862 28.7762 29.0087 28.8252 29.1253 28.8886C29.7242 29.3961 30.3365 29.8859 30.9622 30.3581C31.4765 30.701 31.9909 30.701 32.5052 30.3581C33.1665 29.8437 33.8278 29.3294 34.4891 28.8151C35.39 28.6971 36.2963 28.6726 37.2077 28.7416C37.8453 28.9147 38.1636 29.3311 38.1629 29.9907C38.1858 30.6293 37.8919 31.0457 37.2812 31.2398C30.3499 31.2888 23.4185 31.2888 16.4873 31.2398C15.5673 30.8069 15.3346 30.1333 15.7892 29.2192C15.9751 28.9705 16.2078 28.7991 16.4873 28.7049Z" fill="#FF818E"/>
<path opacity="0.984" fill-rule="evenodd" clip-rule="evenodd" d="M16.0467 32.4519C23.272 32.4396 30.4972 32.4519 37.7224 32.4886C37.9103 32.5389 38.045 32.6492 38.1265 32.8193C38.4386 34.6287 37.8385 36.037 36.3263 37.0442C35.9564 37.2491 35.5645 37.396 35.1507 37.485C29.6399 37.534 24.1292 37.534 18.6184 37.485C16.6204 36.9436 15.5918 35.6332 15.5324 33.554C15.4398 33.0423 15.6112 32.6749 16.0467 32.4519Z" fill="#FF818E"/>
</svg>
