<svg width="41" height="40" viewBox="0 0 41 40" fill="none" xmlns="http://www.w3.org/2000/svg">
<path opacity="0.993" fill-rule="evenodd" clip-rule="evenodd" d="M25.2809 1.59961C26.1416 1.59961 27.0023 1.59961 27.8629 1.59961C32.1976 2.19424 35.3414 4.44154 37.2944 8.34151C37.8217 9.54329 38.1684 10.7865 38.3344 12.0711C38.3344 12.9317 38.3344 13.7924 38.3344 14.6531C37.5336 19.8413 34.6408 23.2721 29.656 24.9452C28.3477 25.2176 27.0328 25.4566 25.7113 25.6625C23.3391 26.2033 21.0918 27.0639 18.9694 28.2445C18.1472 28.4695 17.3821 28.3499 16.6742 27.8859C15.1322 26.3438 13.5902 24.8018 12.0482 23.2598C11.5841 22.5519 11.4645 21.7868 11.6895 20.9647C12.6277 19.2794 13.3688 17.5102 13.9129 15.6572C14.338 13.877 14.6966 12.0839 14.9888 10.278C16.6619 5.29317 20.0927 2.40037 25.2809 1.59961Z" fill="#FF818E"/>
<path opacity="0.98" fill-rule="evenodd" clip-rule="evenodd" d="M9.57373 38.3219C9.09556 38.3219 8.61744 38.3219 8.13929 38.3219C6.32031 37.8176 5.34011 36.6222 5.19867 34.7358C3.31227 34.5944 2.11689 33.6141 1.61255 31.7952C1.61255 31.317 1.61255 30.8389 1.61255 30.3607C2.32583 28.0664 3.87982 27.1221 6.2745 27.5277C6.87207 27.6888 7.38609 27.9877 7.81654 28.4242C9.11952 27.1213 10.4224 25.8184 11.7254 24.5154C11.7732 24.4675 11.821 24.4675 11.8689 24.5154C13.0772 25.7118 14.2726 26.9191 15.455 28.1374C14.153 29.4752 12.8381 30.8021 11.5102 32.1179C12.4428 33.1347 12.7416 34.3181 12.4068 35.6682C11.9331 37.0626 10.9887 37.9471 9.57373 38.3219Z" fill="#FF818E"/>
</svg>
