<svg width="41" height="40" viewBox="0 0 41 40" fill="none" xmlns="http://www.w3.org/2000/svg">
<path opacity="0.962" fill-rule="evenodd" clip-rule="evenodd" d="M22.5608 1.45703C22.9222 1.45703 23.2836 1.45703 23.645 1.45703C29.3755 2.17672 33.8087 4.94746 36.9445 9.76925C36.2062 10.2532 35.4473 10.711 34.6677 11.1426C31.8362 6.76786 27.8005 4.40671 22.5608 4.05912C22.5608 3.19175 22.5608 2.32439 22.5608 1.45703Z" fill="#FF818E"/>
<path opacity="0.96" fill-rule="evenodd" clip-rule="evenodd" d="M19.5978 3.33691C19.7664 3.33691 19.9351 3.33691 20.1037 3.33691C20.1037 4.22837 20.1037 5.11983 20.1037 6.01128C14.8977 6.32441 10.874 8.64942 8.03293 12.9863C7.96065 13.0345 7.88837 13.0345 7.81609 12.9863C7.10316 12.5699 6.40446 12.1362 5.71997 11.6853C8.98455 6.66676 13.6105 3.88397 19.5978 3.33691Z" fill="#FF818E"/>
<path opacity="0.958" fill-rule="evenodd" clip-rule="evenodd" d="M22.5614 4.70984C27.5437 5.05527 31.3987 7.29596 34.1262 11.4319C30.3037 13.6989 26.4608 15.9396 22.5976 18.1539C22.5614 13.6726 22.5493 9.19128 22.5614 4.70984ZM24.0793 5.79404C24.285 5.76008 24.4536 5.82031 24.5853 5.97474C24.3623 6.3753 24.0251 6.54395 23.5733 6.4807C23.4998 6.40484 23.4878 6.32052 23.5372 6.22772C23.69 6.03829 23.8707 5.89373 24.0793 5.79404ZM26.0309 6.73368C26.9696 6.69595 27.343 7.12963 27.1512 8.03472C26.7913 8.57614 26.3215 8.68456 25.7417 8.35998C25.2103 7.70446 25.3067 7.16236 26.0309 6.73368ZM24.5853 9.33577C25.3038 9.33721 25.9422 9.55405 26.5007 9.98629C26.4824 10.4018 26.2536 10.6186 25.814 10.6368C25.379 10.4155 24.9212 10.2589 24.4407 10.167C24.1248 10.024 24.0767 9.81925 24.2961 9.55261C24.3974 9.47881 24.4938 9.40653 24.5853 9.33577ZM29.0666 9.48033C29.6901 9.51343 30.0515 9.83869 30.1508 10.4561C30.0027 11.1201 29.593 11.4093 28.9221 11.3235C28.3461 11.0416 28.1654 10.5959 28.38 9.98629C28.5628 9.74162 28.7917 9.57299 29.0666 9.48033ZM31.4519 10.5645C31.5511 10.5532 31.6475 10.5653 31.741 10.6007C31.4774 10.7849 31.1883 10.8813 30.8736 10.8898C31.0615 10.76 31.2543 10.6516 31.4519 10.5645ZM24.513 11.9379C25.5295 11.8827 26.1319 12.3525 26.32 13.3473C26.0425 14.5461 25.3197 14.9557 24.1516 14.5761C23.332 13.9234 23.2356 13.1764 23.8625 12.3354C24.0622 12.1638 24.279 12.0312 24.513 11.9379ZM27.5487 11.9379C27.6656 11.9767 27.7861 12.0008 27.9101 12.0101C27.8408 12.4286 27.5878 12.6695 27.1512 12.7329C26.8132 12.6723 26.753 12.5157 26.9705 12.2631C27.1584 12.1334 27.3511 12.0249 27.5487 11.9379Z" fill="#FF818E"/>
<path opacity="0.96" fill-rule="evenodd" clip-rule="evenodd" d="M19.1635 6.66113C19.4767 6.66113 19.79 6.66113 20.1031 6.66113C20.1031 11.1184 20.1031 15.5757 20.1031 20.033C16.2056 17.8914 12.3507 15.6748 8.53833 13.3832C11.0409 9.51685 14.5826 7.27618 19.1635 6.66113ZM17.7179 8.6127C18.5345 8.77554 18.8116 9.25743 18.5491 10.0583C18.0221 10.6358 17.4921 10.6358 16.959 10.0583C16.7006 9.29769 16.9536 8.81588 17.7179 8.6127ZM12.6583 10.9257C13.8107 10.8855 14.3769 11.4396 14.3569 12.5881C13.9597 13.6926 13.2248 13.9938 12.1523 13.4916C11.3813 12.7206 11.3813 11.9497 12.1523 11.1786C12.3276 11.091 12.4963 11.0067 12.6583 10.9257ZM16.7783 11.6485C17.4448 11.6032 17.9869 11.8441 18.4046 12.3713C18.4482 12.6667 18.3157 12.8474 18.007 12.9134C17.8143 12.9616 17.6216 12.9616 17.4288 12.9134C17.1644 12.6375 16.8512 12.4327 16.4891 12.299C16.4074 12.1852 16.3953 12.0647 16.453 11.9376C16.554 11.8241 16.6624 11.7277 16.7783 11.6485ZM17.1397 14.5397C18.1087 14.6465 18.4098 15.1525 18.0432 16.0575C17.5133 16.5596 17.0073 16.5355 16.5253 15.9853C16.2385 15.2828 16.4433 14.8009 17.1397 14.5397Z" fill="#FF818E"/>
<path opacity="0.965" fill-rule="evenodd" clip-rule="evenodd" d="M5.06964 12.8057C5.86617 13.2041 6.63716 13.6498 7.3826 14.1428C5.35154 18.2747 5.19493 22.4791 6.91278 26.7557C7.10835 27.1589 7.31314 27.5564 7.52716 27.9483C6.80418 28.4305 6.05729 28.8762 5.28648 29.2855C5.05253 29.0355 4.87183 28.7464 4.74437 28.4182C2.79289 23.9661 2.60015 19.4366 4.16613 14.8295C4.44675 14.1437 4.74791 13.4691 5.06964 12.8057Z" fill="#FF818E"/>
<path opacity="0.965" fill-rule="evenodd" clip-rule="evenodd" d="M36.1501 12.8056C36.2221 12.7994 36.2823 12.8236 36.3308 12.8779C38.3622 16.977 38.7959 21.2415 37.6319 25.6715C37.2947 26.8759 36.8369 28.0324 36.2585 29.141C36.2087 29.2029 36.1485 29.251 36.0778 29.2855C35.307 28.8762 34.5602 28.4304 33.8372 27.9483C35.9229 23.9665 36.2 19.8585 34.6684 15.6246C34.4672 15.1172 34.2383 14.6232 33.9817 14.1428C34.717 13.707 35.4398 13.2612 36.1501 12.8056Z" fill="#FF818E"/>
<path opacity="0.962" fill-rule="evenodd" clip-rule="evenodd" d="M7.88834 14.4678C11.7511 16.6764 15.606 18.9051 19.4532 21.1537C15.6705 23.3342 11.8878 25.5146 8.10518 27.695C6.11663 23.8937 5.83955 19.9664 7.27395 15.9134C7.45972 15.4216 7.66452 14.9398 7.88834 14.4678ZM9.04482 16.4916C10.0905 16.5371 10.4158 17.043 10.0206 18.0095C9.64568 18.3977 9.22404 18.4579 8.7557 18.1902C8.42415 17.8846 8.31573 17.5112 8.43044 17.0699C8.58033 16.8113 8.78513 16.6185 9.04482 16.4916ZM10.7073 20.0333C11.8614 20.2364 12.3072 20.911 12.0444 22.0572C11.3124 23.1075 10.4932 23.1798 9.58692 22.274C9.11416 21.0993 9.48761 20.3525 10.7073 20.0333ZM14.8272 20.0333C15.7892 20.2585 16.0301 20.8006 15.55 21.6596C15.0505 22.0204 14.5807 21.9843 14.1406 21.5512C13.7915 20.7784 14.0204 20.2724 14.8272 20.0333ZM7.74378 20.1056C8.35765 20.0633 8.40584 20.1959 7.88834 20.5032C7.67926 20.5862 7.46242 20.6224 7.23781 20.6116C7.22198 20.5267 7.24608 20.4544 7.31009 20.3947C7.45938 20.2967 7.60394 20.2003 7.74378 20.1056ZM9.8399 23.8642C10.44 23.9183 10.4883 24.099 9.98446 24.4063C9.53495 24.6124 9.06516 24.7448 8.575 24.8038C8.05804 24.7136 8.046 24.5571 8.53886 24.334C8.98792 24.1966 9.4216 24.04 9.8399 23.8642Z" fill="#FF818E"/>
<path opacity="0.961" fill-rule="evenodd" clip-rule="evenodd" d="M33.3309 14.4677C33.5622 14.7109 33.7429 15.0001 33.873 15.335C35.337 18.9881 35.3611 22.6503 33.9453 26.3216C33.7545 26.7995 33.5256 27.2573 33.2586 27.6949C29.476 25.5144 25.6933 23.334 21.9106 21.1536C25.7296 18.9348 29.5364 16.7062 33.3309 14.4677ZM32.7527 16.8529C33.3978 16.8844 33.3978 17.0169 32.7527 17.2504C32.579 17.3093 32.4104 17.2972 32.2467 17.2143C32.4048 17.0754 32.5734 16.955 32.7527 16.8529ZM31.813 19.0213C32.9624 18.9865 33.5286 19.5407 33.5116 20.6837C33.1902 21.6697 32.5276 22.0191 31.5239 21.7318C30.7797 21.2824 30.5509 20.6439 30.8372 19.8164C31.0695 19.4266 31.3947 19.1616 31.813 19.0213ZM26.6811 20.1778C27.6199 20.1401 27.9933 20.5737 27.8015 21.4788C27.5373 21.9537 27.1397 22.1103 26.6089 21.9486C26.0224 21.6069 25.8899 21.1371 26.2113 20.5392C26.3533 20.391 26.51 20.2705 26.6811 20.1778ZM29.3555 20.1778C29.4547 20.1664 29.5512 20.1785 29.6446 20.2139C29.3908 20.427 29.1017 20.5234 28.7773 20.503C28.9718 20.387 29.1645 20.2786 29.3555 20.1778ZM29.5001 22.563C29.9329 22.5989 29.981 22.7556 29.6446 23.0328C29.3766 23.1869 29.0875 23.2472 28.7773 23.2135C28.7695 23.0399 28.8418 22.9074 28.9941 22.816C29.1541 22.6992 29.3228 22.6148 29.5001 22.563ZM31.5239 23.7918C32.3728 23.9301 32.674 24.412 32.4274 25.2374C31.8943 25.8149 31.3642 25.8149 30.8372 25.2374C30.5853 24.5128 30.8142 24.0309 31.5239 23.7918Z" fill="#FF818E"/>
<path opacity="0.959" fill-rule="evenodd" clip-rule="evenodd" d="M19.9595 22.2012C20.1038 26.5132 20.152 30.85 20.1041 35.2116C15.261 34.9115 11.4783 32.7792 8.7561 28.8148C8.81682 28.6871 8.9132 28.5907 9.04522 28.5257C12.7115 26.4521 16.3496 24.3439 19.9595 22.2012ZM17.5743 25.7429C18.4191 25.7803 18.7684 26.214 18.6223 27.0439C18.2791 27.6314 17.8093 27.7639 17.2129 27.4415C16.6447 26.719 16.7651 26.1529 17.5743 25.7429ZM15.0445 28.0559C15.2539 28.0288 15.4466 28.0649 15.6227 28.1643C15.3801 28.5868 15.0187 28.7554 14.5385 28.6702C14.4698 28.6183 14.4578 28.5581 14.5024 28.4895C14.6552 28.3001 14.8359 28.1555 15.0445 28.0559ZM11.4305 28.2004C12.4725 28.1932 12.8219 28.6751 12.4785 29.646C11.9726 30.2243 11.4666 30.2243 10.9606 29.646C10.6622 29.0114 10.8188 28.5295 11.4305 28.2004ZM15.695 29.2846C16.7627 29.3763 17.2807 29.9546 17.249 31.0193C16.8526 32.0512 16.1418 32.3524 15.1168 31.9228C14.4149 31.3565 14.2824 30.6698 14.7192 29.8629C15.0009 29.5839 15.3261 29.3912 15.695 29.2846ZM18.2971 33.5492C18.4831 33.5237 18.6517 33.5598 18.803 33.6576C18.499 34.0286 18.1376 34.137 17.7188 33.9828C17.8904 33.8016 18.0832 33.6571 18.2971 33.5492Z" fill="#FF818E"/>
<path opacity="0.962" fill-rule="evenodd" clip-rule="evenodd" d="M21.26 22.2012C24.9423 24.3076 28.6286 26.4158 32.3189 28.5257C32.4509 28.5907 32.5473 28.6871 32.608 28.8148C29.8858 32.7792 26.1031 34.9115 21.26 35.2116C21.26 30.8748 21.26 26.538 21.26 22.2012ZM23.7175 26.2489C25.1781 26.3041 25.6961 27.0269 25.2716 28.4173C24.5429 29.2212 23.772 29.2694 22.9586 28.5618C22.4103 27.5203 22.6633 26.7494 23.7175 26.2489ZM28.9217 28.345C29.5959 28.2958 30.0054 28.597 30.1505 29.2485C29.9709 30.0849 29.489 30.35 28.7049 30.0436C28.0782 29.3829 28.1505 28.8167 28.9217 28.345ZM26.2473 30.8025C26.3234 30.7917 26.3957 30.8037 26.4642 30.8386C26.1514 31.0439 25.8141 31.1644 25.4523 31.2C25.7045 31.0257 25.9696 30.8932 26.2473 30.8025ZM23.2116 31.2362C24.1676 31.3106 24.4929 31.7925 24.1874 32.6818C23.8127 33.1438 23.367 33.2281 22.8502 32.9348C22.282 32.2123 22.4024 31.6462 23.2116 31.2362Z" fill="#FF818E"/>
<path opacity="0.961" fill-rule="evenodd" clip-rule="evenodd" d="M20.1037 38.4647C19.7182 38.4647 19.3327 38.4647 18.9472 38.4647C13.3312 37.7662 8.97031 35.0677 5.8645 30.3693C6.56321 29.9477 7.26192 29.526 7.96063 29.1044C8.03291 29.0562 8.10519 29.0562 8.17747 29.1044C11.0497 33.2641 15.0251 35.5169 20.1037 35.8626C20.1037 36.7299 20.1037 37.5973 20.1037 38.4647Z" fill="#FF818E"/>
<path opacity="0.961" fill-rule="evenodd" clip-rule="evenodd" d="M22.4165 38.4647C22.031 38.4647 21.6455 38.4647 21.26 38.4647C21.26 37.5973 21.26 36.7299 21.26 35.8626C26.3386 35.5169 30.314 33.2641 33.1862 29.1044C33.2585 29.0562 33.3308 29.0562 33.4031 29.1044C34.1018 29.526 34.8005 29.9477 35.4992 30.3693C32.3934 35.0677 28.0325 37.7662 22.4165 38.4647Z" fill="#FF818E"/>
</svg>
