<svg width="40" height="40" viewBox="0 0 40 40" fill="none" xmlns="http://www.w3.org/2000/svg">
<path opacity="0.969" fill-rule="evenodd" clip-rule="evenodd" d="M19.4479 2.42582C21.9354 2.2774 24.283 2.77871 26.4907 3.92975C26.9609 4.17352 27.1198 4.55256 26.9676 5.06687C26.8716 5.37936 26.7616 5.68504 26.6375 5.9839C26.0615 5.98296 25.4746 6.00742 24.8768 6.05726C24.4526 6.06517 24.2692 6.27304 24.3266 6.68084C24.3877 6.8398 24.4977 6.94984 24.6567 7.01097C25.1692 6.96162 25.6827 6.97384 26.1973 7.04766C25.9483 7.61906 25.6427 8.15705 25.2803 8.66163C24.7028 8.29234 24.0792 8.08447 23.4095 8.03805C23.1161 8.30705 23.1161 8.57602 23.4095 8.84504C23.8786 8.99396 24.3188 9.20187 24.73 9.46862C23.0373 11.4383 21.0321 11.8417 18.7143 10.6791C18.7388 10.6057 18.7633 10.5324 18.7877 10.459C18.5447 8.41913 18.3124 6.37721 18.0907 4.33324C17.996 3.77692 17.7636 3.28784 17.3938 2.86599C18.0772 2.671 18.7619 2.52427 19.4479 2.42582ZM20.8418 3.96643C21.3028 3.97542 21.6084 4.19551 21.7589 4.62669C21.7454 5.27586 21.4152 5.55708 20.7685 5.47036C20.2699 5.21933 20.1354 4.84029 20.365 4.33324C20.5091 4.18283 20.6681 4.06056 20.8418 3.96643Z" fill="#FF818E"/>
<path opacity="0.968" fill-rule="evenodd" clip-rule="evenodd" d="M14.4584 3.086C15.0248 3.06681 15.5873 3.10349 16.1458 3.19604C16.6867 3.39439 17.0168 3.77343 17.1362 4.33316C17.3578 6.37653 17.59 8.41845 17.8331 10.4589C17.6472 11.5121 17.0114 12.0623 15.9257 12.1096C15.9541 11.6935 15.8685 11.3023 15.6689 10.9358C14.2289 8.85009 12.7983 6.75925 11.3772 4.66329C12.2328 3.80751 13.2599 3.28174 14.4584 3.086Z" fill="#FF818E"/>
<path opacity="0.979" fill-rule="evenodd" clip-rule="evenodd" d="M8.44287 4.40618C9.31236 4.29235 10.0337 4.56135 10.6071 5.21317C12.068 7.32799 13.5108 9.4555 14.9354 11.5957C15.0331 12.0935 14.9597 12.5581 14.7154 12.9896C14.0651 13.6643 13.3926 14.3124 12.6979 14.9337C12.1985 15.0958 11.7095 15.0714 11.2306 14.8603C9.17649 13.442 7.12234 12.0236 5.06819 10.6053C4.3925 9.99662 4.16019 9.25082 4.37125 8.36776C5.06905 6.36156 6.42626 5.04104 8.44287 4.40618Z" fill="#FF818E"/>
<path opacity="0.905" fill-rule="evenodd" clip-rule="evenodd" d="M27.5907 6.09381C29.739 6.66724 31.4509 7.85326 32.7261 9.65189C32.5866 10.1739 32.2686 10.3207 31.7724 10.0921C30.5394 8.65079 29.0232 7.63595 27.2239 7.04752C27.3611 6.73363 27.4833 6.41573 27.5907 6.09381Z" fill="#FF818E"/>
<path opacity="0.899" fill-rule="evenodd" clip-rule="evenodd" d="M26.05 9.17502C27.5824 10.307 28.6217 11.7987 29.1679 13.6501C29.2155 14.0432 29.0443 14.2877 28.6544 14.3838C28.4426 14.3542 28.2714 14.2564 28.1409 14.0903C27.6515 12.4752 26.7589 11.1302 25.4631 10.0554C25.6914 9.77923 25.8869 9.48578 26.05 9.17502Z" fill="#FF818E"/>
<path opacity="0.967" fill-rule="evenodd" clip-rule="evenodd" d="M4.55473 11.4492C6.66079 12.8085 8.7394 14.2146 10.7905 15.6676C11.219 15.9275 11.6837 16.0376 12.1844 15.9977C12.0926 16.9943 11.5545 17.5568 10.5705 17.6851C8.68746 17.4772 6.80449 17.2693 4.92154 17.0615C4.16417 17.0845 3.63841 16.7544 3.34424 16.0711C3.00315 14.3295 3.40664 12.7889 4.55473 11.4492Z" fill="#FF818E"/>
<path opacity="0.955" fill-rule="evenodd" clip-rule="evenodd" d="M21.1351 14.1639C23.347 13.9617 25.4256 14.3897 27.3709 15.4477C27.7176 15.645 28.0356 15.8773 28.3246 16.1446C27.9336 16.3768 27.6279 16.6947 27.4076 17.0984C26.5697 18.6028 25.7505 20.119 24.95 21.6468C23.9862 21.7849 23.1059 21.5771 22.3089 21.0233C22.5168 20.8154 22.7247 20.6075 22.9325 20.3997C23.0181 19.8984 22.8102 19.6905 22.3089 19.7761C22.0547 19.9568 21.8224 20.1646 21.612 20.3997C21.3256 20.0224 21.1177 19.6067 20.9884 19.1525C21.4327 19.0813 21.8606 18.959 22.2722 18.7857C22.4826 18.3782 22.3725 18.1092 21.9421 17.9787C21.5446 18.0536 21.1533 18.1515 20.7683 18.2722C20.594 17.8264 20.5206 17.3618 20.5482 16.8783C20.9416 16.9246 21.3206 17.0224 21.6853 17.1717C22.189 16.9785 22.2747 16.6729 21.9421 16.2547C21.4675 16.0749 20.9785 15.9648 20.4749 15.9246C20.4921 15.4588 20.5288 14.9941 20.5849 14.5307C20.7252 14.3267 20.9086 14.2044 21.1351 14.1639ZM24.2897 15.5577C25.1411 15.6134 25.3979 16.0291 25.06 16.8049C24.8151 17.0116 24.5339 17.0728 24.2163 16.9883C23.811 16.7742 23.6765 16.444 23.8128 15.9979C23.9225 15.7915 24.0814 15.6448 24.2897 15.5577Z" fill="#FF818E"/>
<path opacity="0.912" fill-rule="evenodd" clip-rule="evenodd" d="M19.0077 15.7041C19.1788 15.7041 19.3501 15.7041 19.5212 15.7041C19.5212 16.0709 19.5212 16.4377 19.5212 16.8045C18.3852 16.8612 17.3337 17.1913 16.3666 17.7949C16.0242 18.015 15.6819 18.2351 15.3395 18.4552C14.8138 18.5163 14.5815 18.284 14.6426 17.7583C14.7002 17.6272 14.7857 17.5172 14.8994 17.4281C16.1285 16.5076 17.4979 15.9329 19.0077 15.7041Z" fill="#FF818E"/>
<path opacity="0.958" fill-rule="evenodd" clip-rule="evenodd" d="M29.1321 16.8779C30.7084 17.1217 31.8333 17.9654 32.5067 19.4089C30.7658 20.5871 29.0051 21.7365 27.2246 22.857C26.9728 23.0801 26.7649 23.3369 26.601 23.6273C25.9084 23.2209 25.6639 22.634 25.8674 21.8666C26.6988 20.3504 27.5303 18.8343 28.3617 17.3181C28.5869 17.102 28.8437 16.9553 29.1321 16.8779Z" fill="#FF818E"/>
<path opacity="0.961" fill-rule="evenodd" clip-rule="evenodd" d="M4.33543 17.9785C6.41518 18.1824 8.49379 18.4025 10.5712 18.6388C10.8465 18.625 11.1155 18.5761 11.3782 18.4921C11.4473 18.5 11.5084 18.5244 11.5616 18.5654C11.8281 19.4874 11.5224 20.111 10.6446 20.4362C9.14962 20.8405 7.65794 21.2562 6.16949 21.6833C5.67795 21.7999 5.25 21.6899 4.88565 21.3532C4.23375 20.303 4.05035 19.1781 4.33543 17.9785Z" fill="#FF818E"/>
<path opacity="0.903" fill-rule="evenodd" clip-rule="evenodd" d="M19.6677 18.5655C19.7409 18.5633 19.7898 18.6 19.8144 18.6756C19.9198 18.9794 20.0176 19.2851 20.1079 19.5926C18.9408 20.2829 18.036 21.2243 17.3935 22.4171C16.7573 22.6123 16.4761 22.3799 16.5498 21.7201C17.2961 20.3704 18.3353 19.3188 19.6677 18.5655Z" fill="#FF818E"/>
<path opacity="0.976" fill-rule="evenodd" clip-rule="evenodd" d="M33.3861 20.0327C33.9056 19.9698 34.3947 20.0553 34.8533 20.2894C36.2573 21.4685 36.8565 22.9725 36.6507 24.8012C36.4673 25.3759 36.0882 25.7549 35.5136 25.9384C33.4136 26.4048 31.3106 26.8572 29.2044 27.2956C28.902 27.263 28.6331 27.1529 28.3974 26.9654C27.9695 26.1712 27.6272 25.3398 27.3704 24.4711C27.4168 24.2241 27.5024 23.9918 27.6271 23.7742C29.5216 22.477 31.4412 21.2299 33.3861 20.0327Z" fill="#FF818E"/>
<path opacity="0.905" fill-rule="evenodd" clip-rule="evenodd" d="M20.9882 21.2061C21.0925 21.2214 21.1903 21.2581 21.2816 21.3161C21.4969 21.5188 21.6926 21.7266 21.8685 21.9397C21.6054 22.7136 21.581 23.4961 21.7951 24.2873C21.7466 24.6293 21.5509 24.825 21.2082 24.8742C20.759 24.7271 20.5511 24.4092 20.5847 23.9205C20.4402 22.9686 20.5748 22.0638 20.9882 21.2061Z" fill="#FF818E"/>
<path opacity="0.957" fill-rule="evenodd" clip-rule="evenodd" d="M10.7174 21.3529C10.9601 21.3143 11.119 21.4121 11.1943 21.6464C11.518 22.3181 11.8603 22.9784 12.2214 23.6272C12.4965 24.508 12.1908 25.0582 11.3043 25.2778C9.91272 25.5151 8.75118 25.1116 7.81962 24.0673C7.45454 23.604 7.14886 23.1026 6.90259 22.5634C6.9893 22.4361 7.11156 22.3627 7.2694 22.3433C8.43345 22.0323 9.58281 21.7022 10.7174 21.3529Z" fill="#FF818E"/>
<path opacity="0.958" fill-rule="evenodd" clip-rule="evenodd" d="M12.9913 22.9667C13.8583 22.9001 14.6897 23.0347 15.4856 23.3702C15.7033 23.5243 15.8377 23.7322 15.8891 23.9938C15.8881 24.3879 15.8636 24.7792 15.8157 25.1676C15.8432 25.2348 15.8798 25.296 15.9258 25.351C16.8178 25.777 17.0745 26.4495 16.6961 27.3685C16.4374 27.7842 16.0584 28.0043 15.559 28.0288C15.2693 27.9388 14.9759 27.9021 14.6786 27.9187C14.4593 28.1848 14.2392 28.4538 14.0183 28.7257C13.591 28.9401 13.1508 28.9646 12.6978 28.7991C11.6151 28.2177 10.7592 27.3985 10.1301 26.3414C10.7411 26.3289 11.3524 26.2433 11.9642 26.0846C13.2486 25.3621 13.591 24.3228 12.9913 22.9667Z" fill="#FF818E"/>
<path opacity="0.96" fill-rule="evenodd" clip-rule="evenodd" d="M35.2935 26.9282C35.402 26.909 35.4997 26.9334 35.587 27.0016C35.9719 28.2573 35.8374 29.4556 35.1835 30.5963C34.6744 31.148 34.0753 31.258 33.3861 30.9265C31.9721 30.4959 30.5537 30.0802 29.1311 29.6793C28.3815 29.3242 28.1859 28.7984 28.5442 28.102C28.7755 28.1556 29.0078 28.2045 29.2411 28.2487C31.2752 27.8397 33.2927 27.3995 35.2935 26.9282Z" fill="#FF818E"/>
<path opacity="0.944" fill-rule="evenodd" clip-rule="evenodd" d="M28.0309 30.1562C28.4062 30.4165 28.8219 30.5999 29.278 30.7065C30.7711 31.1106 32.2383 31.563 33.6798 32.0637C33.4807 32.8898 33.0649 33.5868 32.4326 34.1545C32.0169 34.399 31.6012 34.399 31.1855 34.1545C30.0905 33.2952 29.0023 32.4271 27.9208 31.5501C27.6705 31.0642 27.7072 30.5996 28.0309 30.1562Z" fill="#FF818E"/>
<path opacity="0.942" fill-rule="evenodd" clip-rule="evenodd" d="M27.5181 32.5039C28.4449 33.164 29.3497 33.861 30.2325 34.5947C28.9944 35.8731 27.6005 36.0932 26.0508 35.255C25.6118 34.8932 25.5263 34.4652 25.794 33.9712C26.3828 33.492 26.9574 33.0029 27.5181 32.5039Z" fill="#FF818E"/>
<path opacity="0.948" fill-rule="evenodd" clip-rule="evenodd" d="M23.5562 32.5781C24.1568 32.6274 24.7314 32.7741 25.2802 33.0183C24.2406 34.643 24.6441 35.8046 26.4907 36.503C25.5877 37.2198 24.5606 37.5376 23.4095 37.4567C23.1833 37.3991 23.0244 37.2646 22.9326 37.0532C22.867 36.7811 22.7936 36.512 22.7125 36.2462C22.3505 36.1391 21.9959 36.0047 21.6488 35.8428C21.3043 35.393 21.2676 34.9161 21.5387 34.4122C21.8359 34.1281 22.1906 33.9691 22.6025 33.9353C22.6636 33.8742 22.7248 33.813 22.7859 33.7519C22.7742 33.1595 23.0309 32.7682 23.5562 32.5781Z" fill="#FF818E"/>
</svg>
