<svg width="393" height="492" viewBox="0 0 393 492" fill="none" xmlns="http://www.w3.org/2000/svg">
<path d="M0 0H393V125.5V466.5C393 466.5 297 466.5 155 466.5C13 466.5 0 295.5 0 295.5V0Z" fill="url(#paint0_linear_1097_1443)"/>
<path d="M44.7156 387C55.5616 399.682 58.7236 418.457 52.6444 434.002C45.8852 427.97 41.1252 418.776 40.826 410.732C40.5268 402.688 42.628 394.772 44.7156 387Z" fill="#FF725E"/>
<path d="M46.606 435.464C50.2848 441.101 52.046 447.969 51.536 454.68C45.6744 452.64 40.5064 446.017 37.4056 440.638C34.3048 435.26 32.5776 429.221 31 423.217C37.3512 425.454 42.9272 429.826 46.606 435.464Z" fill="#FF725E"/>
<path d="M47.4968 409.277C51.8624 424.978 54.0792 441.25 54.0384 457.55C54.0316 462.086 53.8412 466.621 53.4876 471.15C53.4604 471.476 53.9704 471.476 53.9976 471.15C55.2624 454.966 54.324 438.632 51.2028 422.7C50.312 418.144 49.2308 413.622 47.9864 409.141C47.898 408.828 47.4084 408.957 47.4968 409.277Z" fill="#263238"/>
<path d="M54.3036 459.855C49.836 449.22 43.9812 439.258 37.1948 429.949C37.0044 429.684 36.5624 429.942 36.7528 430.207C43.512 439.482 49.36 449.404 53.814 459.998C53.9364 460.297 54.4328 460.168 54.3036 459.862V459.855Z" fill="#263238"/>
<path d="M60.1584 444.249C57.0916 448.948 55.6228 454.674 56.0512 460.27C60.9404 458.57 65.2448 453.048 67.8288 448.56C70.4128 444.072 71.8544 439.04 73.1736 434.036C67.8764 435.899 63.232 439.55 60.1584 444.249Z" fill="#FF725E"/>
<path d="M54.4396 464.105C58.0776 455.462 62.892 447.445 68.4068 439.884C68.5972 439.618 68.1552 439.36 67.9648 439.625C62.4228 447.234 57.5948 455.286 53.9432 463.969C53.814 464.268 54.3104 464.404 54.4328 464.105H54.4396Z" fill="#263238"/>
<path d="M54.1404 466.526C47.2452 459.427 40.2004 452.477 33.3052 445.378C33.074 445.14 32.7136 445.5 32.9448 445.738C39.84 452.838 46.8848 459.787 53.78 466.886C54.0112 467.124 54.3716 466.764 54.1404 466.526Z" fill="#263238"/>
<path d="M32.7068 442.454C38.6908 448.227 44.1444 454.551 48.9724 461.317H47.8776C43.3216 461.106 38.9016 458.856 36.0456 455.306C33.1896 451.756 31.9384 446.949 32.7068 442.454Z" fill="#FF725E"/>
<path d="M60.6208 428.453C58.0504 432.655 55.6296 436.946 53.3652 441.318C53.2156 441.611 53.6576 441.869 53.8072 441.577C56.0784 437.204 58.4992 432.914 61.0628 428.711C61.2328 428.432 60.7908 428.174 60.6208 428.453Z" fill="#263238"/>
<path d="M67.2304 407.475C68.2096 411.881 69.182 417.614 69.1956 422.204C69.2024 426.794 67.8084 431.275 65.1972 434.348C62.586 437.422 57.3228 438.768 55.2012 437.014L67.2304 407.475Z" fill="#FF725E"/>
<path d="M41.2272 473.761H67.3664V468.92H41.2272V473.761Z" fill="#263238"/>
<path d="M45.4568 491.02H61.6952L64.6396 472.646H43.1312L45.4568 491.02Z" fill="#263238"/>
<path opacity="0.2" d="M64.4492 473.85H43.2808L43.546 475.93H64.116L64.4492 473.85Z" fill="black"/>
<g clip-path="url(#clip0_1097_1443)">
<path d="M199.351 365.92C200.943 368.994 200.644 372.306 198.683 373.317C196.723 374.328 193.844 372.655 192.253 369.58C191.557 368.234 191.223 366.843 191.231 365.619L184.653 352.505L190.883 349.555L196.707 362.795C197.712 363.496 198.655 364.574 199.351 365.92Z" fill="#FFB6B6"/>
<path d="M150.396 484.239L156.005 484.238L158.673 462.641L150.395 462.642L150.396 484.239Z" fill="#FFB6B6"/>
<path d="M169.613 484.112C169.787 484.405 169.88 485.353 169.88 485.695C169.88 486.744 169.027 487.595 167.976 487.595H150.606C149.889 487.595 149.307 487.015 149.307 486.299V485.577C149.307 485.577 148.448 483.407 150.217 480.733C150.217 480.733 152.416 482.827 155.701 479.547L156.67 477.795L163.683 482.915L167.571 483.393C168.421 483.497 169.175 483.376 169.613 484.112Z" fill="#2F2E41"/>
<path d="M124.082 484.239L129.691 484.238L132.359 462.641L124.081 462.642L124.082 484.239Z" fill="#FFB6B6"/>
<path d="M143.299 484.112C143.474 484.405 143.566 485.353 143.566 485.695C143.566 486.744 142.713 487.595 141.662 487.595H124.292C123.575 487.595 122.993 487.015 122.993 486.299V485.577C122.993 485.577 122.134 483.407 123.903 480.733C123.903 480.733 126.102 482.827 129.387 479.547L130.356 477.795L137.37 482.915L141.257 483.393C142.107 483.497 142.861 483.376 143.299 484.112Z" fill="#2F2E41"/>
<path d="M116.143 356.813L113.78 371.228L121.131 417.879L122.969 474.228H132.894L137.934 421.024L137.409 385.904L149.223 474.752H159.537L160.513 363.365L116.143 356.813Z" fill="#2F2E41"/>
<path d="M128.482 282.118H147.063L163.138 291.553C160.636 290.919 158.703 314.09 158.638 334.563C158.633 335.924 157.283 337.488 157.295 338.817C157.306 339.962 158.678 340.877 158.701 341.987C158.724 343.025 158.752 344.046 158.786 345.046C158.814 345.876 157.259 346.976 157.295 347.774C157.342 348.794 158.984 349.503 159.045 350.463C159.42 356.365 160.066 361.04 161.038 363.365C161.038 363.365 119.556 374.897 116.405 357.075C116.405 357.075 116.585 350.669 116.56 341.823C116.558 341.038 115.888 340.327 115.882 339.506C115.878 338.896 116.539 338.185 116.532 337.558C116.527 337.042 115.889 336.587 115.882 336.061C115.878 335.748 116.505 335.367 116.5 335.051C116.249 318.23 115.117 297.031 111.154 291.553L128.482 282.118Z" fill="#EBEAFF"/>
<path d="M146.86 282.118C146.86 282.118 158.9 286.486 162.721 289.966C164.751 291.814 178.366 326.673 178.366 326.673L197.276 359.549L187.447 363.276L167.339 332.963L158.412 313.044L146.86 282.118Z" fill="#EBEAFF"/>
<path d="M121.887 367.164C123.643 370.148 123.525 373.471 121.623 374.586C119.72 375.702 116.755 374.187 114.999 371.203C114.23 369.897 113.821 368.526 113.763 367.303L106.481 354.566L112.541 351.282L119.077 364.187C120.118 364.833 121.119 365.857 121.887 367.164Z" fill="#FFB6B6"/>
<path d="M125.857 298.368L120.606 286.312C120.606 286.312 108.266 290.243 108.266 296.009C108.266 296.009 100.915 340.039 101.965 351.047L108.791 363.103L118.506 355.502L112.467 341.612L125.857 298.368Z" fill="#EBEAFF"/>
<path d="M115.058 376.692L121.252 364.413L128.482 374.373L121.975 380.663L115.058 376.692Z" fill="#2F2E41"/>
<path d="M137.598 278.655C144.234 278.655 149.615 273.284 149.615 266.659C149.615 260.033 144.234 254.663 137.598 254.663C130.961 254.663 125.58 260.033 125.58 266.659C125.58 273.284 130.961 278.655 137.598 278.655Z" fill="#FFB6B6"/>
<path d="M146.968 253.258C144.88 252.59 143.892 250.111 141.982 249.036C139.869 247.847 137.342 247.105 135.012 247.778C133.583 248.19 132.338 249.102 130.907 249.512C130.657 249.583 130.394 249.632 130.127 249.658C128.589 249.804 127.268 250.725 126.499 252.063L126.479 252.098C126.028 252.869 125.387 253.507 124.817 254.196C122.74 256.709 121.615 259.975 121.638 263.234C121.663 266.736 123.013 270.214 125.359 272.818L125.959 272.543C127.407 273.791 128.855 275.04 130.304 276.289C129.515 273.45 128.72 270.512 129.137 267.595C129.554 264.679 131.519 261.769 134.416 261.206C135.512 260.993 136.667 261.122 137.731 260.784C138.795 260.446 139.775 259.354 139.41 258.3C140.069 260.039 142.525 259.936 144.216 260.714C148.001 262.455 146.616 259.765 149.901 262.323C151.011 256.184 155.262 255.91 146.968 253.258Z" fill="#2F2E41"/>
<path d="M92 487.18C92 487.635 92.3658 488 92.8214 488H371.179C371.634 488 372 487.635 372 487.18C372 486.725 371.634 486.36 371.179 486.36H92.8214C92.3658 486.36 92 486.725 92 487.18Z" fill="#CCCCCC"/>
<path d="M329.089 488H211.912C197.624 488 186 475.941 186 461.119V199.881C186 185.059 197.624 173 211.912 173H329.089C343.376 173 355 185.059 355 199.881V461.119C355 475.941 343.376 488 329.089 488Z" fill="#3F3D56"/>
<path d="M355.691 269.092C355.063 269.092 354.552 269.602 354.552 270.229V306.619C354.552 307.246 355.063 307.756 355.691 307.756C356.32 307.756 356.831 307.246 356.831 306.619V270.229C356.831 269.602 356.32 269.092 355.691 269.092Z" fill="#3F3D56"/>
<path d="M349 200.255V460.745C349 473.61 339.561 484.133 327.625 484.949H327.62C327.443 484.96 327.267 484.972 327.085 484.977C326.77 484.994 326.454 485 326.134 485C326.134 485 324.958 484.909 322.809 484.739C320.639 484.569 317.48 484.314 313.541 483.979C312.359 483.883 311.114 483.775 309.799 483.662C307.18 483.435 304.304 483.186 301.22 482.902C299.991 482.794 298.719 482.675 297.42 482.556C290.781 481.95 283.346 481.241 275.505 480.436C274.18 480.305 272.843 480.169 271.496 480.028C271.144 479.988 270.785 479.954 270.427 479.914C264.836 479.33 189 463.784 189 460.745V200.255C189 186.858 199.236 176 211.866 176H225.518C227.698 176 229.452 177.803 229.639 180.111C229.655 180.264 229.671 180.417 229.697 180.57C230.093 182.889 232.097 184.505 234.321 184.505H303.679C305.903 184.505 307.907 182.889 308.303 180.57C308.329 180.417 308.345 180.264 308.361 180.111C308.548 177.803 310.302 176 312.482 176H326.134C338.764 176 349 186.858 349 200.255Z" fill="white"/>
<path d="M185.496 241.8C184.867 241.8 184.357 242.31 184.357 242.937V252.034C184.357 252.661 184.867 253.172 185.496 253.172C186.124 253.172 186.635 252.661 186.635 252.034V242.937C186.635 242.31 186.124 241.8 185.496 241.8Z" fill="#3F3D56"/>
<path d="M185.496 269.092C184.867 269.092 184.357 269.602 184.357 270.229V287.856C184.357 288.483 184.867 288.993 185.496 288.993C186.124 288.993 186.635 288.483 186.635 287.856V270.229C186.635 269.602 186.124 269.092 185.496 269.092Z" fill="#3F3D56"/>
<path d="M185.496 294.11C184.867 294.11 184.357 294.62 184.357 295.247V312.874C184.357 313.501 184.867 314.011 185.496 314.011C186.124 314.011 186.635 313.501 186.635 312.874V295.247C186.635 294.62 186.124 294.11 185.496 294.11Z" fill="#3F3D56"/>
<path d="M227.146 179.539H205.36C205.242 179.539 205.146 179.635 205.146 179.753V182.168C205.146 182.286 205.242 182.382 205.36 182.382H227.146C227.264 182.382 227.36 182.286 227.36 182.168V179.753C227.36 179.635 227.264 179.539 227.146 179.539Z" fill="#E6E6E6"/>
<path d="M323.814 182.382C325.072 182.382 326.092 181.364 326.092 180.107C326.092 178.851 325.072 177.833 323.814 177.833C322.556 177.833 321.536 178.851 321.536 180.107C321.536 181.364 322.556 182.382 323.814 182.382Z" fill="#E6E6E6"/>
<path d="M330.079 182.382C331.338 182.382 332.358 181.364 332.358 180.107C332.358 178.851 331.338 177.833 330.079 177.833C328.821 177.833 327.801 178.851 327.801 180.107C327.801 181.364 328.821 182.382 330.079 182.382Z" fill="#E6E6E6"/>
<path d="M336.345 182.382C337.603 182.382 338.623 181.364 338.623 180.107C338.623 178.851 337.603 177.833 336.345 177.833C335.087 177.833 334.067 178.851 334.067 180.107C334.067 181.364 335.087 182.382 336.345 182.382Z" fill="#E6E6E6"/>
<path d="M322.194 238.566H225.563C224.041 238.566 222.803 237.329 222.803 235.81C222.803 234.29 224.041 233.054 225.563 233.054H322.194C323.716 233.054 324.954 234.29 324.954 235.81C324.954 237.329 323.716 238.566 322.194 238.566Z" fill="#E6E6E6"/>
<path d="M338.442 456.638H302.55C301.028 456.638 299.789 455.402 299.789 453.882C299.789 452.362 301.028 451.126 302.55 451.126H338.442C339.964 451.126 341.202 452.362 341.202 453.882C341.202 455.402 339.964 456.638 338.442 456.638Z" fill="#E6E6E6"/>
<path d="M242.501 456.638H206.61C205.088 456.638 203.849 455.402 203.849 453.882C203.849 452.362 205.088 451.126 206.61 451.126H242.501C244.024 451.126 245.262 452.362 245.262 453.882C245.262 455.402 244.024 456.638 242.501 456.638Z" fill="#E6E6E6"/>
<path d="M341.203 245.971H206.554V246.66H341.203V245.971Z" fill="#3F3D56"/>
<path d="M322.194 280.595H225.563C224.041 280.595 222.803 279.359 222.803 277.839C222.803 276.32 224.041 275.083 225.563 275.083H322.194C323.716 275.083 324.954 276.32 324.954 277.839C324.954 279.359 323.716 280.595 322.194 280.595Z" fill="#E6E6E6"/>
<path d="M341.203 288.001H206.554V288.69H341.203V288.001Z" fill="#3F3D56"/>
<path d="M322.194 322.625H225.563C224.041 322.625 222.803 321.389 222.803 319.869C222.803 318.349 224.041 317.113 225.563 317.113H322.194C323.716 317.113 324.954 318.349 324.954 319.869C324.954 321.389 323.716 322.625 322.194 322.625Z" fill="#E6E6E6"/>
<path d="M341.203 330.031H206.554V330.72H341.203V330.031Z" fill="#3F3D56"/>
<path d="M341.203 365.859H206.554V366.548H341.203V365.859Z" fill="#3F3D56"/>
<path d="M341.203 401.688H206.554V402.377H341.203V401.688Z" fill="#3F3D56"/>
<path d="M271.033 426.891C293.142 426.891 311.065 408.999 311.065 386.929C311.065 364.858 293.142 346.966 271.033 346.966C248.923 346.966 231 364.858 231 386.929C231 408.999 248.923 426.891 271.033 426.891Z" fill="#FF725E"/>
<path d="M250.516 394.2C249.696 394.2 248.906 394.1 248.144 393.9C247.391 393.69 246.776 393.424 246.3 393.1L247.229 391.013C247.677 391.299 248.191 391.537 248.772 391.728C249.363 391.909 249.949 391.999 250.53 391.999C250.921 391.999 251.235 391.966 251.473 391.899C251.711 391.823 251.883 391.728 251.988 391.614C252.102 391.49 252.159 391.347 252.159 391.185C252.159 390.956 252.054 390.775 251.845 390.642C251.635 390.508 251.364 390.399 251.03 390.313C250.697 390.227 250.325 390.142 249.915 390.056C249.515 389.97 249.11 389.861 248.701 389.727C248.301 389.594 247.934 389.422 247.6 389.213C247.267 388.994 246.996 388.713 246.786 388.37C246.576 388.017 246.472 387.574 246.472 387.041C246.472 386.441 246.634 385.898 246.957 385.412C247.291 384.926 247.786 384.535 248.444 384.24C249.101 383.945 249.92 383.797 250.901 383.797C251.559 383.797 252.202 383.873 252.831 384.026C253.469 384.168 254.036 384.383 254.531 384.669L253.659 386.769C253.183 386.512 252.712 386.322 252.245 386.198C251.778 386.064 251.325 385.998 250.887 385.998C250.497 385.998 250.182 386.04 249.944 386.126C249.706 386.202 249.534 386.307 249.43 386.441C249.325 386.574 249.272 386.726 249.272 386.898C249.272 387.117 249.372 387.293 249.572 387.427C249.782 387.55 250.054 387.655 250.387 387.741C250.73 387.817 251.102 387.898 251.502 387.984C251.911 388.07 252.316 388.179 252.716 388.313C253.126 388.436 253.497 388.608 253.831 388.827C254.164 389.037 254.431 389.318 254.631 389.67C254.841 390.013 254.946 390.447 254.946 390.971C254.946 391.552 254.779 392.09 254.445 392.585C254.121 393.071 253.631 393.462 252.974 393.757C252.326 394.052 251.506 394.2 250.516 394.2ZM258.242 394V386.241H255.17V383.997H264.13V386.241H261.072V394H258.242ZM263.481 394L267.897 383.997H270.683L275.113 394H272.169L268.711 385.383H269.826L266.368 394H263.481ZM265.896 392.057L266.625 389.97H271.512L272.241 392.057H265.896ZM275.915 394V383.997H280.488C281.403 383.997 282.189 384.145 282.846 384.44C283.513 384.735 284.027 385.164 284.389 385.726C284.751 386.279 284.932 386.936 284.932 387.698C284.932 388.451 284.751 389.103 284.389 389.656C284.027 390.199 283.513 390.618 282.846 390.913C282.189 391.199 281.403 391.342 280.488 391.342H277.487L278.745 390.156V394H275.915ZM282.103 394L279.616 390.356H282.632L285.132 394H282.103ZM278.745 390.456L277.487 389.156H280.317C280.907 389.156 281.345 389.027 281.631 388.77C281.927 388.513 282.074 388.155 282.074 387.698C282.074 387.231 281.927 386.869 281.631 386.612C281.345 386.355 280.907 386.226 280.317 386.226H277.487L278.745 384.926V390.456ZM288.483 394V386.241H285.41V383.997H294.37V386.241H291.312V394H288.483Z" fill="white"/>
</g>
<defs>
<linearGradient id="paint0_linear_1097_1443" x1="61" y1="434" x2="393" y2="1.91858e-05" gradientUnits="userSpaceOnUse">
<stop offset="0.429808" stop-color="#C72C3C"/>
<stop offset="1" stop-color="#F05666"/>
</linearGradient>
<clipPath id="clip0_1097_1443">
<rect width="280" height="315" fill="white" transform="translate(92 173)"/>
</clipPath>
</defs>
</svg>
